<svg width="25" height="25" viewBox="0 0 25 25" fill="none" xmlns="http://www.w3.org/2000/svg">
<path d="M21.811 3.18876C21.6224 3.00025 21.3869 2.86544 21.1289 2.79821C20.8708 2.73098 20.5995 2.73376 20.3429 2.80626H20.3288L2.33445 8.26625C2.04153 8.35049 1.78123 8.52196 1.5882 8.75784C1.39517 8.99371 1.27857 9.28278 1.25393 9.58658C1.2293 9.89037 1.29779 10.1945 1.45029 10.4583C1.60279 10.7222 1.83206 10.9334 2.10757 11.0638L10.1344 14.8653L13.936 22.8922C14.056 23.1492 14.2471 23.3666 14.4866 23.5186C14.7262 23.6706 15.0042 23.7509 15.2879 23.75C15.331 23.75 15.3741 23.7481 15.4173 23.7444C15.72 23.7199 16.008 23.6034 16.2426 23.4105C16.4772 23.2176 16.6472 22.9576 16.7298 22.6653L22.186 4.67094C22.186 4.66626 22.186 4.66157 22.186 4.65688C22.2595 4.40091 22.2634 4.13 22.1975 3.87199C22.1316 3.61397 21.9982 3.37815 21.811 3.18876ZM15.2963 22.2359L15.2916 22.2491L11.6016 14.4594L16.0304 10.0297C16.1651 9.8879 16.2391 9.69908 16.2366 9.50351C16.2341 9.30794 16.1553 9.12108 16.017 8.98278C15.8787 8.84448 15.6918 8.76568 15.4963 8.76318C15.3007 8.76067 15.1119 8.83466 14.9701 8.96938L10.5404 13.3981L2.74976 9.70813H2.76289L20.7498 4.25001L15.2963 22.2359Z" fill="white"/>
</svg>
